<mxfile host="app.diagrams.net" modified="2023-01-24T21:48:05.212Z" agent="5.0 (Windows NT 10.0; Win64; x64) AppleWebKit/537.36 (KHTML, like Gecko) Chrome/104.0.0.0 Safari/537.36" etag="VTFIxrf68h_rAfPbIgHa" version="20.8.8" type="github">
  <diagram id="C5RBs43oDa-KdzZeNtuy" name="Page-1">
    <mxGraphModel dx="1313" dy="676" grid="1" gridSize="10" guides="1" tooltips="1" connect="1" arrows="1" fold="1" page="1" pageScale="1" pageWidth="827" pageHeight="1169" math="0" shadow="1">
      <root>
        <mxCell id="WIyWlLk6GJQsqaUBKTNV-0" />
        <mxCell id="WIyWlLk6GJQsqaUBKTNV-1" parent="WIyWlLk6GJQsqaUBKTNV-0" />
        <mxCell id="rpk_asHWrSznHl8svfK_-1" value="" style="endArrow=classic;html=1;rounded=1;fontSize=16;exitX=0.5;exitY=1;exitDx=0;exitDy=0;entryX=0.5;entryY=0;entryDx=0;entryDy=0;strokeWidth=2;shadow=1;" parent="WIyWlLk6GJQsqaUBKTNV-1" source="MVnXyRWLXPP6LBbdKx3y-1" target="MVnXyRWLXPP6LBbdKx3y-2" edge="1">
          <mxGeometry width="50" height="50" relative="1" as="geometry">
            <mxPoint x="100" y="160" as="sourcePoint" />
            <mxPoint x="230" y="270" as="targetPoint" />
          </mxGeometry>
        </mxCell>
        <mxCell id="rpk_asHWrSznHl8svfK_-3" value="" style="endArrow=classic;html=1;rounded=1;fontSize=16;exitX=0.5;exitY=1;exitDx=0;exitDy=0;entryX=0.5;entryY=0;entryDx=0;entryDy=0;strokeWidth=2;shadow=1;" parent="WIyWlLk6GJQsqaUBKTNV-1" source="MVnXyRWLXPP6LBbdKx3y-2" target="MVnXyRWLXPP6LBbdKx3y-5" edge="1">
          <mxGeometry width="50" height="50" relative="1" as="geometry">
            <mxPoint x="180" y="250" as="sourcePoint" />
            <mxPoint x="100" y="230" as="targetPoint" />
            <Array as="points" />
          </mxGeometry>
        </mxCell>
        <mxCell id="rpk_asHWrSznHl8svfK_-24" value="" style="endArrow=classic;html=1;rounded=1;fontSize=16;exitX=1;exitY=0.5;exitDx=0;exitDy=0;entryX=0;entryY=0.5;entryDx=0;entryDy=0;strokeWidth=2;shadow=1;" parent="WIyWlLk6GJQsqaUBKTNV-1" source="MVnXyRWLXPP6LBbdKx3y-5" target="MVnXyRWLXPP6LBbdKx3y-10" edge="1">
          <mxGeometry width="50" height="50" relative="1" as="geometry">
            <mxPoint x="390" y="340" as="sourcePoint" />
            <mxPoint x="210" y="420" as="targetPoint" />
            <Array as="points">
              <mxPoint x="190" y="360" />
            </Array>
          </mxGeometry>
        </mxCell>
        <mxCell id="rpk_asHWrSznHl8svfK_-41" value="" style="endArrow=classic;html=1;rounded=1;fontSize=16;exitX=1;exitY=0.5;exitDx=0;exitDy=0;entryX=0.5;entryY=1;entryDx=0;entryDy=0;strokeWidth=2;shadow=1;" parent="WIyWlLk6GJQsqaUBKTNV-1" source="MVnXyRWLXPP6LBbdKx3y-22" target="MVnXyRWLXPP6LBbdKx3y-5" edge="1">
          <mxGeometry width="50" height="50" relative="1" as="geometry">
            <mxPoint x="770" y="430" as="sourcePoint" />
            <mxPoint x="120" y="450" as="targetPoint" />
            <Array as="points">
              <mxPoint x="700" y="440" />
              <mxPoint x="700" y="490" />
              <mxPoint x="700" y="560" />
              <mxPoint x="660" y="560" />
              <mxPoint x="510" y="560" />
              <mxPoint x="310" y="560" />
              <mxPoint x="100" y="560" />
            </Array>
          </mxGeometry>
        </mxCell>
        <mxCell id="rpk_asHWrSznHl8svfK_-45" value="" style="endArrow=classic;html=1;rounded=1;fontSize=16;exitX=1;exitY=0.5;exitDx=0;exitDy=0;entryX=0;entryY=0.5;entryDx=0;entryDy=0;strokeWidth=2;shadow=1;" parent="WIyWlLk6GJQsqaUBKTNV-1" source="MVnXyRWLXPP6LBbdKx3y-20" target="MVnXyRWLXPP6LBbdKx3y-22" edge="1">
          <mxGeometry width="50" height="50" relative="1" as="geometry">
            <mxPoint x="560" y="445" as="sourcePoint" />
            <mxPoint x="650" y="430" as="targetPoint" />
          </mxGeometry>
        </mxCell>
        <mxCell id="rpk_asHWrSznHl8svfK_-46" value="" style="endArrow=classic;html=1;rounded=1;fontSize=16;exitX=1;exitY=0.5;exitDx=0;exitDy=0;entryX=0;entryY=0.5;entryDx=0;entryDy=0;strokeWidth=2;shadow=1;" parent="WIyWlLk6GJQsqaUBKTNV-1" source="MVnXyRWLXPP6LBbdKx3y-29" target="MVnXyRWLXPP6LBbdKx3y-25" edge="1">
          <mxGeometry width="50" height="50" relative="1" as="geometry">
            <mxPoint x="533.5" y="320" as="sourcePoint" />
            <mxPoint x="580" y="302.5" as="targetPoint" />
          </mxGeometry>
        </mxCell>
        <mxCell id="MVnXyRWLXPP6LBbdKx3y-1" value="Start" style="ellipse;whiteSpace=wrap;html=1;strokeWidth=2;fontSize=16;rounded=1;fillColor=#FF6666;gradientColor=#FF0000;shadow=1;spacing=2;fontStyle=1" vertex="1" parent="WIyWlLk6GJQsqaUBKTNV-1">
          <mxGeometry x="40" y="90" width="120" height="80" as="geometry" />
        </mxCell>
        <mxCell id="MVnXyRWLXPP6LBbdKx3y-2" value="Choose a Pin" style="shape=parallelogram;perimeter=parallelogramPerimeter;whiteSpace=wrap;html=1;fixedSize=1;strokeWidth=2;shadow=1;fillColor=#FFB366;gradientColor=#FF8000;fontSize=16;fontStyle=1" vertex="1" parent="WIyWlLk6GJQsqaUBKTNV-1">
          <mxGeometry x="35" y="200" width="130" height="70" as="geometry" />
        </mxCell>
        <mxCell id="MVnXyRWLXPP6LBbdKx3y-5" value="&lt;i&gt;For each&lt;/i&gt; &lt;br&gt;Guess:" style="shape=parallelogram;perimeter=parallelogramPerimeter;whiteSpace=wrap;html=1;fixedSize=1;strokeWidth=2;shadow=1;gradientColor=#FF8000;fillColor=#FFB366;fontSize=16;fontStyle=1" vertex="1" parent="WIyWlLk6GJQsqaUBKTNV-1">
          <mxGeometry x="35" y="325" width="130" height="70" as="geometry" />
        </mxCell>
        <mxCell id="MVnXyRWLXPP6LBbdKx3y-10" value="&lt;font style=&quot;font-size: 16px;&quot;&gt;&lt;b&gt;Guess&lt;/b&gt;&lt;/font&gt;" style="rhombus;whiteSpace=wrap;html=1;strokeWidth=2;shadow=1;gradientColor=#007FFF;fillColor=#99CCFF;" vertex="1" parent="WIyWlLk6GJQsqaUBKTNV-1">
          <mxGeometry x="200" y="310" width="100" height="100" as="geometry" />
        </mxCell>
        <mxCell id="MVnXyRWLXPP6LBbdKx3y-11" value="Congratulations &lt;br style=&quot;font-size: 16px;&quot;&gt;you win!" style="shape=parallelogram;perimeter=parallelogramPerimeter;whiteSpace=wrap;html=1;fixedSize=1;strokeWidth=2;shadow=1;gradientColor=#FF8000;fillColor=#FFB366;fontSize=16;fontStyle=1" vertex="1" parent="WIyWlLk6GJQsqaUBKTNV-1">
          <mxGeometry x="320" y="200" width="160" height="80" as="geometry" />
        </mxCell>
        <mxCell id="MVnXyRWLXPP6LBbdKx3y-12" value="" style="endArrow=classic;html=1;rounded=0;entryX=0;entryY=0.5;entryDx=0;entryDy=0;exitX=0.5;exitY=0;exitDx=0;exitDy=0;strokeWidth=2;shadow=1;" edge="1" parent="WIyWlLk6GJQsqaUBKTNV-1" source="MVnXyRWLXPP6LBbdKx3y-10" target="MVnXyRWLXPP6LBbdKx3y-11">
          <mxGeometry width="50" height="50" relative="1" as="geometry">
            <mxPoint x="270" y="420" as="sourcePoint" />
            <mxPoint x="300" y="240" as="targetPoint" />
            <Array as="points">
              <mxPoint x="250" y="240" />
            </Array>
          </mxGeometry>
        </mxCell>
        <mxCell id="MVnXyRWLXPP6LBbdKx3y-13" value="&lt;i&gt;if&lt;/i&gt;&lt;br&gt;Right" style="text;html=1;align=center;verticalAlign=middle;resizable=0;points=[];autosize=1;strokeColor=none;fillColor=none;strokeWidth=2;shadow=1;fontSize=14;fontStyle=1" vertex="1" parent="WIyWlLk6GJQsqaUBKTNV-1">
          <mxGeometry x="240" y="190" width="60" height="50" as="geometry" />
        </mxCell>
        <mxCell id="MVnXyRWLXPP6LBbdKx3y-16" value="&lt;i&gt;if&lt;/i&gt;&lt;br&gt;Wrong" style="text;html=1;align=center;verticalAlign=middle;resizable=0;points=[];autosize=1;strokeColor=none;fillColor=none;strokeWidth=2;shadow=1;fontSize=14;fontStyle=1" vertex="1" parent="WIyWlLk6GJQsqaUBKTNV-1">
          <mxGeometry x="285" y="310" width="70" height="50" as="geometry" />
        </mxCell>
        <mxCell id="MVnXyRWLXPP6LBbdKx3y-17" value="" style="endArrow=classic;html=1;rounded=1;fontSize=16;exitX=1;exitY=0.5;exitDx=0;exitDy=0;entryX=0;entryY=0.5;entryDx=0;entryDy=0;strokeWidth=2;shadow=1;" edge="1" parent="WIyWlLk6GJQsqaUBKTNV-1" source="MVnXyRWLXPP6LBbdKx3y-10" target="MVnXyRWLXPP6LBbdKx3y-29">
          <mxGeometry width="50" height="50" relative="1" as="geometry">
            <mxPoint x="310" y="370" as="sourcePoint" />
            <mxPoint x="413.5" y="320" as="targetPoint" />
            <Array as="points">
              <mxPoint x="350" y="360" />
              <mxPoint x="350" y="320" />
            </Array>
          </mxGeometry>
        </mxCell>
        <mxCell id="MVnXyRWLXPP6LBbdKx3y-20" value="Guess count &lt;br style=&quot;font-size: 16px;&quot;&gt;&amp;lt;= 3" style="rounded=0;whiteSpace=wrap;html=1;strokeWidth=2;shadow=1;gradientColor=#80FF00;fillColor=#CCFF99;fontSize=16;fontStyle=1" vertex="1" parent="WIyWlLk6GJQsqaUBKTNV-1">
          <mxGeometry x="410" y="410" width="120" height="60" as="geometry" />
        </mxCell>
        <mxCell id="MVnXyRWLXPP6LBbdKx3y-22" value="Sorry try it&lt;br style=&quot;border-color: var(--border-color); font-size: 16px;&quot;&gt;&lt;span style=&quot;font-size: 16px;&quot;&gt;&amp;nbsp;again&lt;/span&gt;" style="shape=parallelogram;perimeter=parallelogramPerimeter;whiteSpace=wrap;html=1;fixedSize=1;strokeWidth=2;shadow=1;gradientColor=#FF8000;fillColor=#FFB366;fontSize=16;fontStyle=1" vertex="1" parent="WIyWlLk6GJQsqaUBKTNV-1">
          <mxGeometry x="550" y="407.5" width="120" height="65" as="geometry" />
        </mxCell>
        <mxCell id="MVnXyRWLXPP6LBbdKx3y-24" value="" style="endArrow=classic;html=1;rounded=1;fontSize=16;exitX=1;exitY=0.5;exitDx=0;exitDy=0;entryX=0.002;entryY=0.627;entryDx=0;entryDy=0;entryPerimeter=0;strokeWidth=2;shadow=1;" edge="1" parent="WIyWlLk6GJQsqaUBKTNV-1" source="MVnXyRWLXPP6LBbdKx3y-10" target="MVnXyRWLXPP6LBbdKx3y-20">
          <mxGeometry width="50" height="50" relative="1" as="geometry">
            <mxPoint x="310" y="370" as="sourcePoint" />
            <mxPoint x="423.5" y="330" as="targetPoint" />
            <Array as="points">
              <mxPoint x="350" y="360" />
              <mxPoint x="350" y="448" />
            </Array>
          </mxGeometry>
        </mxCell>
        <mxCell id="MVnXyRWLXPP6LBbdKx3y-25" value="Terminate" style="ellipse;whiteSpace=wrap;html=1;strokeWidth=2;fontSize=16;rounded=1;fillColor=#FF6666;gradientColor=#FF0000;shadow=1;fontStyle=1" vertex="1" parent="WIyWlLk6GJQsqaUBKTNV-1">
          <mxGeometry x="570" y="280" width="120" height="80" as="geometry" />
        </mxCell>
        <mxCell id="MVnXyRWLXPP6LBbdKx3y-29" value="Guess Count &lt;br style=&quot;font-size: 16px;&quot;&gt;&amp;gt;3" style="rounded=0;whiteSpace=wrap;html=1;strokeWidth=2;shadow=1;gradientColor=#80FF00;fillColor=#CCFF99;fontSize=16;fontStyle=1" vertex="1" parent="WIyWlLk6GJQsqaUBKTNV-1">
          <mxGeometry x="410" y="290" width="120" height="60" as="geometry" />
        </mxCell>
      </root>
    </mxGraphModel>
  </diagram>
</mxfile>
